<svg version="1.2" xmlns="http://www.w3.org/2000/svg" viewBox="0 0 119 47" width="119" height="47">
	<title>Logo</title>
	<style>
		.s0 { fill: #3172b9 } 
	</style>
	<path id="Logo" fill-rule="evenodd" class="s0" d="m2 27.4v-25.1h3.2v21.9h8.9v3.2zm21-25.1v25.1h-3.2v-25.1zm28 3.5q3.8 3.7 3.8 9.1 0 5.3-3.8 9-3.7 3.8-9 3.8-5.3 0-9-3.8-3.8-3.7-3.8-9 0-5.4 3.8-9.1 3.7-3.8 9-3.8 5.3 0 9 3.8zm-9-0.5q-3.9 0-6.7 2.8-2.8 2.8-2.8 6.8 0 3.9 2.8 6.7 2.8 2.8 6.7 2.8 3.9 0 6.7-2.8 2.8-2.8 2.8-6.7 0-4-2.8-6.8-2.8-2.8-6.7-2.8zm18.7-3h2.9l10.3 18v-18h3.2v25.1h-2.8l-10.4-18.1v18.1h-3.2zm26.2 0v25.2h-3.2v-25.2zm25.9 19.2l2.4 2.2q-4.4 4-9.4 4-5.2 0-9-3.7-3.7-3.8-3.7-9.1 0-5.3 3.7-9.1 3.8-3.7 9-3.7 5 0 9.4 4l-2.4 2.2q-3.3-2.9-7-2.9-3.9 0-6.6 2.7-2.8 2.8-2.8 6.8 0 4 2.8 6.8 2.7 2.8 6.6 2.8 3.7 0 7-3zm-57.8 21.4h3.3v0.6h-4.1v-7.2h0.8zm4.5-1.5q0.1 0.3 0.2 0.7 0.1 0.3 0.4 0.5 0.2 0.2 0.5 0.4 0.3 0.1 0.7 0.1 0.5 0 0.9-0.2 0.4-0.3 0.6-0.6l0.5 0.4q-0.4 0.5-0.9 0.8-0.5 0.2-1.1 0.2-0.6 0-1-0.2-0.5-0.2-0.8-0.5-0.3-0.3-0.5-0.8-0.2-0.5-0.2-1 0-0.5 0.2-1 0.2-0.5 0.5-0.8 0.3-0.3 0.8-0.5 0.4-0.2 0.9-0.2 0.5 0 1 0.2 0.4 0.2 0.7 0.5 0.3 0.3 0.4 0.8 0.2 0.4 0.2 0.9v0.3zm3.2-0.6q0-0.6-0.4-1.1-0.4-0.4-1.1-0.4-0.4 0-0.7 0.1-0.3 0.2-0.5 0.4-0.2 0.2-0.4 0.5-0.1 0.2-0.1 0.5zm2.3 3.8q0.3 0.4 0.8 0.6 0.4 0.2 1 0.2 0.5 0 0.9-0.1 0.3-0.2 0.6-0.4 0.2-0.3 0.3-0.6 0.1-0.4 0.1-0.7v-0.9h-0.1q-0.3 0.5-0.7 0.7-0.5 0.2-1 0.2-0.5 0-1-0.2-0.4-0.2-0.8-0.5-0.3-0.3-0.5-0.8-0.2-0.4-0.2-0.9 0-0.6 0.2-1 0.2-0.5 0.5-0.8 0.3-0.3 0.7-0.5 0.5-0.2 1-0.2 0.2 0 0.5 0 0.2 0.1 0.4 0.2 0.3 0.1 0.5 0.3 0.2 0.1 0.4 0.4h0.1v-0.8h0.6v4.8q0 0.3-0.1 0.8-0.1 0.4-0.3 0.8-0.3 0.4-0.8 0.6-0.5 0.2-1.3 0.2-0.7 0-1.3-0.2-0.5-0.2-1-0.7zm0.1-3.4q0 0.4 0.2 0.7 0.1 0.3 0.3 0.6 0.3 0.2 0.6 0.4 0.3 0.1 0.7 0.1 0.4 0 0.7-0.1 0.3-0.2 0.6-0.4 0.2-0.2 0.4-0.6 0.1-0.3 0.1-0.7 0-0.4-0.1-0.7-0.1-0.4-0.4-0.6-0.2-0.3-0.6-0.4-0.3-0.2-0.7-0.2-0.4 0-0.7 0.2-0.3 0.1-0.6 0.4-0.2 0.2-0.3 0.6-0.2 0.3-0.2 0.7zm8.8-0.5v-0.1q0-1.3-1.2-1.3-0.9 0-1.5 0.6l-0.4-0.5q0.7-0.7 2-0.7 0.4 0 0.7 0.1 0.3 0.1 0.5 0.3 0.3 0.2 0.4 0.6 0.2 0.3 0.2 0.7v2.2q0 0.2 0 0.5 0 0.3 0 0.5h-0.6q0-0.1-0.1-0.4 0-0.2 0-0.4-0.3 0.5-0.7 0.7-0.4 0.2-1 0.2-0.3 0-0.6 0-0.3-0.1-0.5-0.3-0.2-0.2-0.4-0.4-0.1-0.3-0.1-0.7 0-0.5 0.3-0.9 0.3-0.3 0.7-0.5 0.5-0.1 1-0.2 0.5 0 0.9 0zm-0.3 0.5q-0.2 0-0.6 0.1-0.4 0-0.8 0.1-0.3 0.1-0.6 0.3-0.2 0.2-0.2 0.6 0 0.2 0.1 0.4 0.1 0.1 0.2 0.2 0.2 0.1 0.4 0.2 0.2 0 0.4 0 0.4 0 0.6-0.1 0.3-0.1 0.5-0.3 0.2-0.2 0.3-0.5 0-0.3 0-0.6v-0.4zm3.4 2.4h-0.6v-7.7h0.6zm8.1-6q-0.5-0.7-1.4-0.7-0.3 0-0.5 0-0.3 0.1-0.5 0.3-0.3 0.1-0.4 0.4-0.1 0.2-0.1 0.6 0 0.5 0.3 0.7 0.2 0.3 0.6 0.5 0.4 0.2 0.9 0.3 0.5 0.1 0.9 0.4 0.4 0.2 0.7 0.6 0.3 0.3 0.3 1 0 0.5-0.2 0.9-0.3 0.4-0.6 0.6-0.3 0.3-0.8 0.4-0.4 0.2-0.8 0.2-0.7 0-1.3-0.3-0.5-0.2-1-0.8l0.7-0.5q0.2 0.4 0.7 0.7 0.4 0.2 0.9 0.2 0.3 0 0.6-0.1 0.3-0.1 0.5-0.2 0.2-0.2 0.3-0.4 0.2-0.3 0.2-0.6 0-0.4-0.2-0.6-0.1-0.3-0.4-0.4-0.3-0.2-0.6-0.3-0.3-0.1-0.7-0.3-0.3-0.1-0.6-0.2-0.4-0.1-0.6-0.4-0.3-0.2-0.5-0.5-0.1-0.4-0.1-0.9 0-0.5 0.2-0.9 0.2-0.3 0.5-0.6 0.3-0.3 0.8-0.4 0.4-0.1 0.8-0.1 0.6 0 1.1 0.2 0.5 0.2 0.9 0.7zm6.8 3.6q0 0.6-0.2 1-0.1 0.5-0.5 0.8-0.3 0.4-0.8 0.5-0.4 0.2-1 0.2-0.5 0-1-0.2-0.5-0.1-0.8-0.5-0.3-0.3-0.5-0.8-0.2-0.4-0.2-1 0-0.5 0.2-1 0.2-0.4 0.5-0.8 0.3-0.3 0.8-0.5 0.5-0.2 1-0.2 0.6 0 1 0.2 0.5 0.2 0.8 0.5 0.4 0.4 0.5 0.8 0.2 0.5 0.2 1zm-0.7 0q0-0.4-0.1-0.7-0.2-0.4-0.4-0.6-0.2-0.3-0.5-0.4-0.4-0.2-0.8-0.2-0.4 0-0.7 0.2-0.4 0.1-0.6 0.4-0.2 0.2-0.3 0.6-0.2 0.3-0.2 0.7 0 0.4 0.2 0.8 0.1 0.3 0.3 0.6 0.2 0.2 0.6 0.4 0.3 0.1 0.7 0.1 0.4 0 0.8-0.1 0.3-0.2 0.5-0.4 0.2-0.3 0.4-0.6 0.1-0.4 0.1-0.8zm2.8 2.4h-0.7v-7.7h0.7zm5 0q0-0.2 0-0.4 0-0.2 0-0.4-0.2 0.2-0.3 0.4-0.2 0.1-0.4 0.3-0.2 0.1-0.5 0.1-0.2 0.1-0.4 0.1-0.9 0-1.4-0.5-0.4-0.5-0.4-1.4v-3h0.7v2.7q0 0.4 0 0.7 0.1 0.3 0.2 0.5 0.2 0.2 0.4 0.3 0.3 0.1 0.6 0.1 0.1 0 0.3 0 0.3-0.1 0.5-0.3 0.3-0.2 0.5-0.5 0.2-0.4 0.2-1v-2.5h0.6v3.7q0 0.2 0.1 0.5 0 0.3 0 0.6zm4.7-4.2h-1.4v2.8q0 0.3 0 0.5 0.1 0.1 0.2 0.2 0.1 0.1 0.2 0.2 0.1 0 0.3 0 0.2 0 0.3-0.1 0.2 0 0.4-0.1v0.6q-0.4 0.2-0.9 0.2-0.2 0-0.4 0-0.2-0.1-0.4-0.2-0.2-0.2-0.3-0.4-0.1-0.3-0.1-0.7v-3h-1v-0.6h1v-1.3h0.7v1.3h1.4zm1.8-2.4q0 0.2-0.1 0.3-0.2 0.1-0.3 0.1-0.2 0-0.4-0.1-0.1-0.1-0.1-0.3 0-0.3 0.1-0.4 0.2-0.1 0.4-0.1 0.1 0 0.3 0.1 0.1 0.1 0.1 0.4zm-0.1 6.6h-0.7v-4.8h0.7zm6.4-2.4q0 0.5-0.2 1-0.2 0.5-0.5 0.8-0.3 0.3-0.8 0.5-0.5 0.2-1 0.2-0.6 0-1-0.2-0.5-0.2-0.8-0.5-0.4-0.3-0.6-0.8-0.1-0.5-0.1-1 0-0.5 0.1-1 0.2-0.5 0.6-0.8 0.3-0.3 0.8-0.5 0.4-0.2 1-0.2 0.5 0 1 0.2 0.5 0.2 0.8 0.5 0.3 0.3 0.5 0.8 0.2 0.5 0.2 1zm-0.7 0q0-0.4-0.2-0.7-0.1-0.4-0.3-0.6-0.2-0.3-0.6-0.4-0.3-0.2-0.7-0.2-0.4 0-0.8 0.2-0.3 0.1-0.5 0.4-0.3 0.2-0.4 0.6-0.1 0.3-0.1 0.7 0 0.4 0.1 0.8 0.1 0.3 0.4 0.6 0.2 0.2 0.5 0.4 0.4 0.1 0.8 0.1 0.4 0 0.7-0.1 0.4-0.2 0.6-0.4 0.2-0.3 0.3-0.6 0.2-0.4 0.2-0.8zm2.6-2.4q0 0.2 0 0.4 0 0.2 0 0.4 0.1-0.2 0.3-0.4 0.2-0.1 0.4-0.3 0.2-0.1 0.4-0.1 0.3-0.1 0.5-0.1 0.9 0 1.3 0.5 0.5 0.5 0.5 1.4v3h-0.7v-2.6q0-0.8-0.3-1.3-0.2-0.4-1-0.4 0 0-0.3 0.1-0.2 0-0.5 0.2-0.2 0.2-0.4 0.5-0.2 0.4-0.2 1v2.5h-0.7v-3.7q0-0.2 0-0.5 0-0.3 0-0.6zm-68.6 2h-43v-1.4h43z"/>
</svg>