<svg version="1.2" xmlns="http://www.w3.org/2000/svg" viewBox="0 0 18 21" width="18" height="21"><style>.a{fill:#787878}</style><path fill-rule="evenodd" class="a" d="m9.2 19q-0.1 0-0.2 0-0.1 0-0.2 0c-7-2.5-6.9-8.4-6.8-12.6q0-0.7 0-1.3c0-0.4 0.3-0.6 0.6-0.6 2.5 0 4.4-0.8 6-2.3 0.2-0.3 0.6-0.3 0.8 0 1.6 1.5 3.5 2.3 6 2.3 0.3 0 0.6 0.2 0.6 0.6q0 0.6 0 1.3c0.1 4.2 0.2 10.1-6.8 12.6zm5.6-12.6q0-0.4 0-0.8c-2.3-0.1-4.2-0.8-5.8-2.2-1.6 1.4-3.5 2.1-5.8 2.2q0 0.4 0 0.8c-0.1 4.3-0.2 9.2 5.8 11.4 6-2.2 5.9-7.1 5.8-11.4zm-3 2c0.3 0.3 0.3 0.6 0 0.9l-3.2 3.3q-0.2 0.1-0.4 0.1-0.2 0-0.4-0.1l-1.6-1.7c-0.3-0.2-0.3-0.6 0-0.8 0.2-0.3 0.6-0.3 0.8 0l1.2 1.2 2.8-2.9c0.2-0.2 0.6-0.2 0.8 0z"/></svg>