<svg version="1.2" xmlns="http://www.w3.org/2000/svg" viewBox="0 0 19 17" width="19" height="17">
	<title>Twitter</title>
	<style>
		.s0 { fill: #1c1c1c } 
	</style>
	<path id="Twitter" class="s0" d="m18.5 2.6q-1 0.5-2.2 0.6c0.8-0.5 1.4-1.2 1.7-2.1q-1.1 0.7-2.4 0.9c-0.7-0.7-1.7-1.2-2.8-1.2-2.1 0-3.8 1.7-3.8 3.9q0 0.4 0.1 0.8c-3.1-0.1-5.9-1.7-7.8-4-0.3 0.6-0.5 1.2-0.5 1.9 0 1.4 0.7 2.6 1.7 3.2q-1 0-1.8-0.4 0 0 0 0c0 1.9 1.4 3.4 3.1 3.8q-0.5 0.1-1 0.1-0.4 0-0.7 0c0.5 1.5 1.9 2.6 3.5 2.6-1.3 1.1-2.9 1.7-4.7 1.7q-0.4 0-0.9-0.1c1.7 1.1 3.7 1.7 5.8 1.7 7 0 10.8-5.8 10.8-10.9q0-0.2 0-0.5 1.1-0.8 1.9-2z"/>
</svg>