<svg version="1.2" xmlns="http://www.w3.org/2000/svg" viewBox="0 0 68 67" width="68" height="67"><style>.a{fill:#fff}</style><path fill-rule="evenodd" class="a" d="m65.8 17.1l-10.5 33 0.3 0.8c0.3 1 0.2 2.1-0.3 3.1-0.4 0.7-1 1.3-1.7 1.7q0 0 0 0l-2.4 7.5c-0.5 1.7-2.1 2.8-3.8 2.8q-0.6 0-1.2-0.2l-12.2-3.8-12.2 3.8q-0.6 0.2-1.2 0.2c-1.7 0-3.3-1.1-3.8-2.8l-14.6-46.1c-0.3-1-0.2-2.1 0.3-3.1 0.4-0.9 1.3-1.6 2.3-1.9l31.1-9.9c2.1-0.7 4.4 0.5 5.1 2.6v0.2q0.1 0 0.1 0l22.1 7.1c1 0.3 1.9 1 2.3 1.9 0.5 1 0.6 2.1 0.3 3.1zm-15.4 39.6l-12 3.9 8.6 2.7c0.7 0.2 1.4-0.2 1.7-0.9zm2.5-5l-14.6-46.1c-0.2-0.8-0.9-1.1-1.6-0.9l-31.2 9.8c-0.3 0.2-0.6 0.4-0.8 0.7-0.1 0.3-0.2 0.7-0.1 1l14.7 46.2c0.2 0.7 0.9 1 1.6 0.8l12.6-3.9q0-0.1 0.1-0.1l18.5-5.8c0.3-0.1 0.6-0.4 0.8-0.7 0.1-0.3 0.2-0.7 0-1zm-2.5-16.9l5-15.6-11-3.5zm12.6-19.6c-0.1-0.3-0.4-0.5-0.7-0.7l-20.4-6.4 1.4 4.6q0.2 0 0.3 0l12.5 4c0.7 0.2 1.2 0.7 1.6 1.3 0.3 0.6 0.4 1.3 0.1 2l-6 19.2 2 6.5 9.3-29.5c0.1-0.3 0.1-0.7-0.1-1zm-30.2 10.1c1.2 0.6 2 1.6 2.4 2.9 0.4 1.3 0.3 2.7-0.5 3.9l-3.2 5c-0.3 0.5-0.9 0.9-1.5 1.1q-0.4 0.1-0.8 0.1-0.6 0-1.1-0.2l-5.5-2.2c-1.3-0.5-2.2-1.6-2.6-2.9-0.4-1.2-0.3-2.6 0.3-3.7 0.6-1.2 1.6-2.1 2.9-2.5 1-0.3 2.2-0.3 3.2 0.1 0.7-0.9 1.6-1.6 2.6-1.9 1.3-0.4 2.6-0.3 3.8 0.3zm-0.1 3.7c-0.2-0.6-0.6-1.1-1.1-1.3-0.6-0.3-1.2-0.4-1.8-0.2-0.7 0.2-1.3 0.9-1.5 1.6-0.1 0.5-0.4 0.9-0.9 1-0.4 0.1-0.9 0-1.2-0.3-0.5-0.3-1-0.5-1.5-0.5q-0.4 0-0.7 0.1c-0.6 0.1-1.1 0.5-1.3 1.1-0.3 0.5-0.4 1.1-0.2 1.7 0.2 0.6 0.6 1 1.1 1.2l5.5 2.3q0.1 0 0.1 0 0 0 0.1-0.1l3.2-5c0.3-0.5 0.4-1.1 0.2-1.6zm13.3 13.9c0.2 0.7 0.2 1.4-0.1 2-0.4 0.6-0.9 1.1-1.6 1.3l-21.2 6.7q-0.4 0.2-0.8 0.2c-1.1 0-2.2-0.8-2.6-1.9l-9.8-31.2c-0.2-0.7-0.2-1.4 0.1-2 0.4-0.6 0.9-1.1 1.6-1.3l21.2-6.7c1.4-0.5 2.9 0.3 3.3 1.7zm-2.5 0.8l-9.9-31.2-9.7 3.1-11.5 3.6 9.9 31.2z"/></svg>