<svg version="1.2" xmlns="http://www.w3.org/2000/svg" viewBox="0 0 66 66" width="66" height="66"><style>.a{fill:#3172b9}</style><path fill-rule="evenodd" class="a" d="m43.6 32l2.9-2.9q0.2 0 0.5 0c1.7 0 3.3-0.6 4.5-1.8l2.7-2.7c2.5-2.5 2.5-6.6 0-9.1l-12.6-12.6c-1.2-1.2-2.8-1.9-4.5-1.9-1.7 0-3.4 0.7-4.6 1.9l-2.7 2.7c-1.4 1.4-2 3.2-1.8 5l-17.4 17.4q-0.2-0.1-0.5-0.1c-1.7 0-3.3 0.7-4.5 1.9l-2.7 2.7c-2.5 2.5-2.5 6.6 0 9.1l12.6 12.6c1.2 1.2 2.8 1.9 4.5 1.9 1.7 0 3.3-0.7 4.6-1.9l2.7-2.7c1.2-1.2 1.8-2.8 1.8-4.5q0-0.3 0-0.5l2.9-2.9 20.5 20.5c1.2 1.2 2.8 1.9 4.5 1.9 1.7 0 3.3-0.7 4.5-1.9l2.6-2.6c2.5-2.5 2.5-6.5 0-9zm-14.9 8.3l-5.1 5.1 0.4 0.4c0.6 0.7 0.6 1.7 0 2.4l-2.8 2.7c-0.3 0.3-0.7 0.5-1.1 0.5-0.5 0-0.9-0.2-1.2-0.5l-12.7-12.6c-0.6-0.7-0.6-1.8 0-2.4l2.7-2.7c0.4-0.4 0.8-0.5 1.2-0.5 0.5 0 0.9 0.1 1.2 0.5l0.4 0.4 21.9-21.9-0.4-0.4c-0.7-0.6-0.7-1.7 0-2.4l2.7-2.7c0.3-0.3 0.7-0.5 1.2-0.5 0.4 0 0.8 0.2 1.2 0.5l12.6 12.7c0.7 0.6 0.7 1.7 0 2.3l-2.7 2.8c-0.3 0.3-0.8 0.5-1.2 0.5-0.4 0-0.9-0.2-1.2-0.5l-0.4-0.4-5.1 5.1-3.5 3.5-4.6 4.6zm32.1 18l-2.6 2.6c-0.3 0.3-0.8 0.5-1.2 0.5-0.4 0-0.9-0.2-1.2-0.5l-20.5-20.6 5-4.9 20.5 20.5c0.6 0.6 0.6 1.7 0 2.4z"/></svg>