<svg version="1.2" xmlns="http://www.w3.org/2000/svg" viewBox="0 0 87 64" width="87" height="64"><style>.a{fill:#3172b9}</style><path fill-rule="evenodd" class="a" d="m79.6 20.3q0 3.1-0.9 6h5.2c1.1 0 2.1 0.9 2.1 2.1 0 1.2-1 2.1-2.1 2.1h-6.4q-0.3 0-0.6 0-1.3 2.2-3.2 4.1l-28.7 28.8c-0.4 0.4-1 0.6-1.5 0.6-0.6 0-1.1-0.2-1.5-0.6l-28.8-28.8q-1.6-1.6-2.7-3.4-0.3 0.1-0.5 0.1h-7.9c-1.1 0-2.1-1-2.1-2.2 0-1.2 1-2.1 2.1-2.1h6.3c-2.4-7.1-0.8-15.4 4.8-21.1 3.9-3.8 8.9-5.9 14.3-5.9 5.5 0 10.5 2.1 14.4 5.9l1.6 1.6 1.6-1.6c3.8-3.8 8.9-5.9 14.3-5.9 5.4 0 10.5 2.1 14.3 5.9 3.8 3.9 5.9 9 5.9 14.4zm-8.9-11.3c-3-3.1-7.1-4.7-11.3-4.7-4.3 0-8.3 1.6-11.3 4.7l-3.1 3.1c-0.9 0.8-2.2 0.8-3 0l-3.2-3.1c-3-3.1-7-4.7-11.3-4.7-4.2 0-8.2 1.6-11.3 4.7-5 5-6 12.7-2.8 18.8h14.8l5.3-11.3c0.3-0.5 0.8-0.9 1.4-0.8 0.6 0 1.1 0.4 1.3 0.9l7.9 21.9 6.4-18.3c0.2-0.6 0.7-1 1.3-1 0.6 0 1.1 0.3 1.4 0.9l3.2 7h17.5c2.7-6 1.7-13.3-3.2-18.1zm-54.5 22.6l27.3 27.2 27.2-27.2q0.8-0.8 1.5-1.8h-16.5c-0.5 0-1.3-0.2-1.6-0.7l-2.1-4.7-6.6 18.8c-0.2 0.6-0.7 0.9-1.3 0.9q0 0 0 0c-0.6 0-1.2-0.3-1.4-0.9l-8-22.4-4.3 9c-0.2 0.5-0.4 0.7-1 0.7h-14.1q0.4 0.6 0.9 1.1z"/></svg>