<svg version="1.2" xmlns="http://www.w3.org/2000/svg" viewBox="0 0 72 70" width="72" height="70"><style>.a{fill:#3172b9}</style><path class="a" d="m52.4 2c-10-0.2-18.3 7.6-18.5 17.5l-0.1 5c-0.1 1.3 1 2.5 2.4 2.5 1.4 0 2.5-1.1 2.5-2.4l0.2-5c0.1-7.1 6.2-12.8 13.4-12.7 7.2 0.2 12.9 6.1 12.7 13.3-0.2 7.1-6.2 12.8-13.4 12.7l-31.1-0.7c-10-0.2-18.2 7.6-18.5 17.5-0.2 9.9 7.7 18.1 17.6 18.3 10 0.2 18.3-7.6 18.5-17.5l0.1-4.9c0.1-1.4-1-2.5-2.4-2.5-1.4-0.1-2.5 1-2.5 2.4l-0.2 4.9c-0.1 7.1-6.2 12.8-13.4 12.7-7.2-0.2-12.9-6.1-12.7-13.3 0.2-7.1 6.2-12.8 13.4-12.7l31.1 0.7c10 0.2 18.2-7.6 18.5-17.5 0.2-9.9-7.7-18.1-17.6-18.3z"/></svg>